<svg width="240" height="236" viewBox="0 0 240 236" fill="none" xmlns="http://www.w3.org/2000/svg">
<path fill-rule="evenodd" clip-rule="evenodd" d="M122.785 0.0360206C138.496 -0.682995 152.271 9.49381 165.538 18.7928C179.692 28.7146 196.881 37.6645 201.714 55.3621C206.527 72.985 196.777 90.8775 189.791 107.595C183.594 122.426 175.989 136.503 163.876 145.912C151.885 155.225 137.348 161.615 122.785 159.641C108.998 157.773 100.744 142.784 88.4371 135.689C72.8671 126.713 50.2706 129.457 41.4181 112.735C32.5536 95.9896 38.4937 73.5911 46.3947 56.2707C53.6576 40.3489 69.0889 32.492 82.5382 22.5914C95.3669 13.1476 107.369 0.741563 122.785 0.0360206Z" fill="#608AF5"/>
<path d="M120 39.3612C110.106 39.3616 100.535 42.8825 92.9999 49.2939C85.4644 55.7053 80.4563 64.5888 78.8714 74.3549C77.2865 84.121 79.2284 94.1323 84.3496 102.598C89.4708 111.063 97.437 117.43 106.823 120.559C108.906 120.924 109.688 119.674 109.688 118.58C109.688 117.59 109.635 114.309 109.635 110.82C99.1667 112.747 96.4583 108.268 95.625 105.924C94.7003 103.644 93.2345 101.624 91.3542 100.038C89.8958 99.257 87.8125 97.33 91.302 97.278C92.6345 97.4225 93.9124 97.8862 95.0276 98.6296C96.1428 99.373 97.0624 100.374 97.7083 101.549C98.2782 102.572 99.0445 103.474 99.9633 104.201C100.882 104.928 101.935 105.466 103.063 105.786C104.19 106.105 105.369 106.199 106.533 106.062C107.696 105.924 108.822 105.559 109.844 104.986C110.024 102.868 110.968 100.887 112.5 99.4134C103.229 98.3717 93.5417 94.7778 93.5417 78.8405C93.4831 74.6994 95.0112 70.6929 97.8125 67.6426C96.5387 64.0435 96.6877 60.0938 98.2292 56.6009C98.2292 56.6009 101.719 55.5071 109.687 60.8717C116.505 58.9966 123.703 58.9966 130.521 60.8717C138.489 55.4551 141.979 56.6009 141.979 56.6009C143.521 60.0937 143.67 64.0435 142.396 67.6426C145.206 70.6877 146.735 74.6977 146.667 78.8405C146.667 94.83 136.927 98.3717 127.656 99.4134C128.651 100.421 129.416 101.631 129.902 102.961C130.387 104.291 130.58 105.71 130.469 107.122C130.469 112.695 130.417 117.174 130.417 118.58C130.417 119.674 131.198 120.976 133.281 120.559C142.651 117.405 150.594 111.023 155.693 102.553C160.793 94.0834 162.716 84.0772 161.12 74.3205C159.524 64.5639 154.513 55.6919 146.981 49.2883C139.449 42.8847 129.886 39.3664 120 39.3612Z" fill="white"/>
<path d="M76.167 207.675C75.537 206.462 74.662 205.552 73.542 204.945C72.422 204.315 71.127 204 69.657 204C68.047 204 66.612 204.362 65.352 205.085C64.092 205.808 63.1003 206.835 62.377 208.165C61.677 209.495 61.327 211.035 61.327 212.785C61.327 214.535 61.677 216.087 62.377 217.44C63.1003 218.77 64.092 219.797 65.352 220.52C66.612 221.243 68.047 221.605 69.657 221.605C71.827 221.605 73.5887 220.998 74.942 219.785C76.2953 218.572 77.1237 216.927 77.427 214.85H68.292V211.665H81.697V214.78C81.4403 216.67 80.7637 218.408 79.667 219.995C78.5937 221.582 77.182 222.853 75.432 223.81C73.7053 224.743 71.7803 225.21 69.657 225.21C67.3703 225.21 65.282 224.685 63.392 223.635C61.502 222.562 59.997 221.08 58.877 219.19C57.7803 217.3 57.232 215.165 57.232 212.785C57.232 210.405 57.7803 208.27 58.877 206.38C59.997 204.49 61.502 203.02 63.392 201.97C65.3053 200.897 67.3937 200.36 69.657 200.36C72.247 200.36 74.5453 201.002 76.552 202.285C78.582 203.545 80.052 205.342 80.962 207.675H76.167ZM89.5873 203.16C88.864 203.16 88.2573 202.915 87.7673 202.425C87.2773 201.935 87.0323 201.328 87.0323 200.605C87.0323 199.882 87.2773 199.275 87.7673 198.785C88.2573 198.295 88.864 198.05 89.5873 198.05C90.2873 198.05 90.8823 198.295 91.3723 198.785C91.8623 199.275 92.1073 199.882 92.1073 200.605C92.1073 201.328 91.8623 201.935 91.3723 202.425C90.8823 202.915 90.2873 203.16 89.5873 203.16ZM91.5473 205.715V225H87.5573V205.715H91.5473ZM103.366 208.97V219.645C103.366 220.368 103.529 220.893 103.856 221.22C104.206 221.523 104.789 221.675 105.606 221.675H108.056V225H104.906C103.109 225 101.733 224.58 100.776 223.74C99.8192 222.9 99.3408 221.535 99.3408 219.645V208.97H97.0658V205.715H99.3408V200.92H103.366V205.715H108.056V208.97H103.366ZM123.633 205.4C125.103 205.4 126.41 205.715 127.553 206.345C128.72 206.975 129.63 207.908 130.283 209.145C130.96 210.382 131.298 211.875 131.298 213.625V225H127.343V214.22C127.343 212.493 126.912 211.175 126.048 210.265C125.185 209.332 124.007 208.865 122.513 208.865C121.02 208.865 119.83 209.332 118.943 210.265C118.08 211.175 117.648 212.493 117.648 214.22V225H113.658V199.1H117.648V207.955C118.325 207.138 119.177 206.508 120.203 206.065C121.253 205.622 122.397 205.4 123.633 205.4ZM155.778 205.715V225H151.788V222.725C151.158 223.518 150.329 224.148 149.303 224.615C148.299 225.058 147.226 225.28 146.083 225.28C144.566 225.28 143.201 224.965 141.988 224.335C140.798 223.705 139.853 222.772 139.153 221.535C138.476 220.298 138.138 218.805 138.138 217.055V205.715H142.093V216.46C142.093 218.187 142.524 219.517 143.388 220.45C144.251 221.36 145.429 221.815 146.923 221.815C148.416 221.815 149.594 221.36 150.458 220.45C151.344 219.517 151.788 218.187 151.788 216.46V205.715H155.778ZM166.957 208.585C167.634 207.652 168.556 206.893 169.722 206.31C170.912 205.703 172.231 205.4 173.677 205.4C175.381 205.4 176.921 205.808 178.297 206.625C179.674 207.442 180.759 208.608 181.552 210.125C182.346 211.618 182.742 213.333 182.742 215.27C182.742 217.207 182.346 218.945 181.552 220.485C180.759 222.002 179.662 223.192 178.262 224.055C176.886 224.895 175.357 225.315 173.677 225.315C172.184 225.315 170.854 225.023 169.687 224.44C168.544 223.857 167.634 223.11 166.957 222.2V225H162.967V199.1H166.957V208.585ZM178.682 215.27C178.682 213.94 178.402 212.797 177.842 211.84C177.306 210.86 176.582 210.125 175.672 209.635C174.786 209.122 173.829 208.865 172.802 208.865C171.799 208.865 170.842 209.122 169.932 209.635C169.046 210.148 168.322 210.895 167.762 211.875C167.226 212.855 166.957 214.01 166.957 215.34C166.957 216.67 167.226 217.837 167.762 218.84C168.322 219.82 169.046 220.567 169.932 221.08C170.842 221.593 171.799 221.85 172.802 221.85C173.829 221.85 174.786 221.593 175.672 221.08C176.582 220.543 177.306 219.773 177.842 218.77C178.402 217.767 178.682 216.6 178.682 215.27Z" fill="#3F3D56"/>
</svg>
