<svg width="240" height="236" viewBox="0 0 240 236" fill="none" xmlns="http://www.w3.org/2000/svg">
<path fill-rule="evenodd" clip-rule="evenodd" d="M122.785 0.0360206C138.496 -0.682995 152.271 9.49381 165.538 18.7928C179.692 28.7146 196.881 37.6645 201.714 55.3621C206.527 72.985 196.777 90.8775 189.791 107.595C183.594 122.426 175.989 136.503 163.876 145.912C151.885 155.225 137.348 161.615 122.785 159.641C108.998 157.773 100.744 142.784 88.4371 135.689C72.8671 126.713 50.2706 129.457 41.4181 112.735C32.5536 95.9896 38.4937 73.5911 46.3947 56.2707C53.6576 40.3489 69.0889 32.492 82.5382 22.5914C95.3669 13.1476 107.369 0.741563 122.785 0.0360206Z" fill="#608AF5"/>
<path d="M142.25 52.7502C141.261 52.7502 140.294 53.0434 139.472 53.5928C138.65 54.1422 138.009 54.9231 137.631 55.8367C137.252 56.7504 137.153 57.7557 137.346 58.7256C137.539 59.6955 138.015 60.5864 138.714 61.2857C139.414 61.985 140.305 62.4612 141.275 62.6541C142.244 62.847 143.25 62.748 144.163 62.3696C145.077 61.9911 145.858 61.3503 146.407 60.528C146.957 59.7058 147.25 58.7391 147.25 57.7502C147.25 56.4241 146.723 55.1523 145.786 54.2146C144.848 53.2769 143.576 52.7502 142.25 52.7502ZM161.417 62.8335C161.336 59.3764 160.688 55.956 159.5 52.7085C158.441 49.9299 156.792 47.4138 154.667 45.3335C152.603 43.1978 150.082 41.5592 147.292 40.5418C144.053 39.3175 140.629 38.6552 137.167 38.5835C132.75 38.3335 131.333 38.3335 120 38.3335C108.667 38.3335 107.25 38.3335 102.833 38.5835C99.3715 38.6552 95.9473 39.3175 92.7083 40.5418C89.9237 41.5695 87.4039 43.2067 85.3333 45.3335C83.1976 47.3967 81.5591 49.9187 80.5417 52.7085C79.3173 55.9474 78.6551 59.3716 78.5833 62.8335C78.3333 67.2502 78.3333 68.6668 78.3333 80.0002C78.3333 91.3335 78.3333 92.7502 78.5833 97.1668C78.6551 100.629 79.3173 104.053 80.5417 107.292C81.5591 110.082 83.1976 112.604 85.3333 114.667C87.4039 116.794 89.9237 118.431 92.7083 119.458C95.9473 120.683 99.3715 121.345 102.833 121.417C107.25 121.667 108.667 121.667 120 121.667C131.333 121.667 132.75 121.667 137.167 121.417C140.629 121.345 144.053 120.683 147.292 119.458C150.082 118.441 152.603 116.803 154.667 114.667C156.801 112.594 158.451 110.076 159.5 107.292C160.688 104.044 161.336 100.624 161.417 97.1668C161.417 92.7502 161.667 91.3335 161.667 80.0002C161.667 68.6668 161.667 67.2502 161.417 62.8335ZM153.917 96.6668C153.886 99.3117 153.407 101.932 152.5 104.417C151.835 106.23 150.766 107.869 149.375 109.208C148.024 110.586 146.388 111.652 144.583 112.333C142.099 113.241 139.478 113.72 136.833 113.75C132.667 113.958 131.125 114 120.167 114C109.208 114 107.667 114 103.5 113.75C100.754 113.802 98.0192 113.379 95.4167 112.5C93.6908 111.784 92.1307 110.72 90.8333 109.375C89.4504 108.037 88.3952 106.397 87.75 104.583C86.7327 102.063 86.1685 99.3833 86.0833 96.6668C86.0833 92.5002 85.8333 90.9585 85.8333 80.0002C85.8333 69.0418 85.8333 67.5002 86.0833 63.3335C86.102 60.6296 86.5956 57.9499 87.5417 55.4168C88.2752 53.6581 89.4011 52.0904 90.8333 50.8335C92.0992 49.4009 93.6637 48.2631 95.4167 47.5002C97.9565 46.5837 100.633 46.1047 103.333 46.0835C107.5 46.0835 109.042 45.8335 120 45.8335C130.958 45.8335 132.5 45.8335 136.667 46.0835C139.312 46.1138 141.932 46.5929 144.417 47.5002C146.31 48.2029 148.01 49.3454 149.375 50.8335C150.74 52.1134 151.807 53.6782 152.5 55.4168C153.426 57.9541 153.905 60.6326 153.917 63.3335C154.125 67.5002 154.167 69.0418 154.167 80.0002C154.167 90.9585 154.125 92.5002 153.917 96.6668ZM120 58.6252C115.774 58.6334 111.646 59.894 108.136 62.2477C104.626 64.6015 101.893 67.9426 100.282 71.8491C98.6704 75.7556 98.253 80.0521 99.0825 84.1957C99.9119 88.3393 101.951 92.1441 104.942 95.1292C107.933 98.1144 111.742 100.146 115.887 100.967C120.032 101.789 124.328 101.363 128.231 99.7441C132.134 98.125 135.47 95.3853 137.817 91.8711C140.164 88.3569 141.417 84.226 141.417 80.0002C141.422 77.1881 140.872 74.4027 139.797 71.8041C138.722 69.2056 137.144 66.8452 135.154 64.8587C133.163 62.8722 130.8 61.2988 128.199 60.229C125.599 59.1592 122.812 58.6142 120 58.6252ZM120 93.8752C117.256 93.8752 114.573 93.0614 112.291 91.5368C110.01 90.0122 108.231 87.8452 107.181 85.3099C106.131 82.7746 105.856 79.9848 106.392 77.2933C106.927 74.6018 108.248 72.1295 110.189 70.1891C112.129 68.2486 114.602 66.9271 117.293 66.3918C119.985 65.8564 122.774 66.1312 125.31 67.1813C127.845 68.2315 130.012 70.0099 131.537 72.2916C133.061 74.5734 133.875 77.2559 133.875 80.0002C133.875 81.8223 133.516 83.6265 132.819 85.3099C132.122 86.9933 131.1 88.5229 129.811 89.8113C128.523 91.0997 126.993 92.1217 125.31 92.819C123.626 93.5163 121.822 93.8752 120 93.8752Z" fill="white"/>
<path d="M27.1253 200.605V225H23.9403V200.605H27.1253ZM43.8236 205.47C46.1569 205.47 48.0469 206.182 49.4936 207.605C50.9403 209.005 51.6636 211.035 51.6636 213.695V225H48.5136V214.15C48.5136 212.237 48.0353 210.778 47.0786 209.775C46.1219 208.748 44.8153 208.235 43.1586 208.235C41.4786 208.235 40.1369 208.76 39.1336 209.81C38.1536 210.86 37.6636 212.388 37.6636 214.395V225H34.4786V205.82H37.6636V208.55C38.2936 207.57 39.1453 206.812 40.2186 206.275C41.3153 205.738 42.5169 205.47 43.8236 205.47ZM65.5813 225.315C64.1113 225.315 62.793 225.07 61.6263 224.58C60.4596 224.067 59.538 223.367 58.8613 222.48C58.1846 221.57 57.8113 220.532 57.7413 219.365H61.0313C61.1246 220.322 61.568 221.103 62.3613 221.71C63.178 222.317 64.2396 222.62 65.5463 222.62C66.7596 222.62 67.7163 222.352 68.4163 221.815C69.1163 221.278 69.4663 220.602 69.4663 219.785C69.4663 218.945 69.093 218.327 68.3463 217.93C67.5996 217.51 66.4446 217.102 64.8813 216.705C63.458 216.332 62.2913 215.958 61.3813 215.585C60.4946 215.188 59.7246 214.617 59.0713 213.87C58.4413 213.1 58.1263 212.097 58.1263 210.86C58.1263 209.88 58.418 208.982 59.0013 208.165C59.5846 207.348 60.413 206.707 61.4863 206.24C62.5596 205.75 63.7846 205.505 65.1613 205.505C67.2846 205.505 68.9996 206.042 70.3063 207.115C71.613 208.188 72.313 209.658 72.4063 211.525H69.2213C69.1513 210.522 68.743 209.717 67.9963 209.11C67.273 208.503 66.293 208.2 65.0563 208.2C63.913 208.2 63.003 208.445 62.3263 208.935C61.6496 209.425 61.3113 210.067 61.3113 210.86C61.3113 211.49 61.5096 212.015 61.9063 212.435C62.3263 212.832 62.8396 213.158 63.4463 213.415C64.0763 213.648 64.9396 213.917 66.0363 214.22C67.413 214.593 68.533 214.967 69.3963 215.34C70.2596 215.69 70.9946 216.227 71.6013 216.95C72.2313 217.673 72.558 218.618 72.5813 219.785C72.5813 220.835 72.2896 221.78 71.7063 222.62C71.123 223.46 70.2946 224.125 69.2213 224.615C68.1713 225.082 66.958 225.315 65.5813 225.315ZM82.8874 208.445V219.75C82.8874 220.683 83.0858 221.348 83.4824 221.745C83.8791 222.118 84.5674 222.305 85.5474 222.305H87.8924V225H85.0224C83.2491 225 81.9191 224.592 81.0324 223.775C80.1458 222.958 79.7024 221.617 79.7024 219.75V208.445H77.2174V205.82H79.7024V200.99H82.8874V205.82H87.8924V208.445H82.8874ZM92.4864 215.34C92.4864 213.38 92.8831 211.665 93.6764 210.195C94.4698 208.702 95.5548 207.547 96.9314 206.73C98.3314 205.913 99.8831 205.505 101.586 205.505C103.266 205.505 104.725 205.867 105.961 206.59C107.198 207.313 108.12 208.223 108.726 209.32V205.82H111.946V225H108.726V221.43C108.096 222.55 107.151 223.483 105.891 224.23C104.655 224.953 103.208 225.315 101.551 225.315C99.8481 225.315 98.3081 224.895 96.9314 224.055C95.5548 223.215 94.4698 222.037 93.6764 220.52C92.8831 219.003 92.4864 217.277 92.4864 215.34ZM108.726 215.375C108.726 213.928 108.435 212.668 107.851 211.595C107.268 210.522 106.475 209.705 105.471 209.145C104.491 208.562 103.406 208.27 102.216 208.27C101.026 208.27 99.9414 208.55 98.9614 209.11C97.9814 209.67 97.1998 210.487 96.6164 211.56C96.0331 212.633 95.7414 213.893 95.7414 215.34C95.7414 216.81 96.0331 218.093 96.6164 219.19C97.1998 220.263 97.9814 221.092 98.9614 221.675C99.9414 222.235 101.026 222.515 102.216 222.515C103.406 222.515 104.491 222.235 105.471 221.675C106.475 221.092 107.268 220.263 107.851 219.19C108.435 218.093 108.726 216.822 108.726 215.375ZM127.164 205.505C128.82 205.505 130.267 205.867 131.504 206.59C132.764 207.313 133.697 208.223 134.304 209.32V205.82H137.524V225.42C137.524 227.17 137.15 228.722 136.404 230.075C135.657 231.452 134.584 232.525 133.184 233.295C131.807 234.065 130.197 234.45 128.354 234.45C125.834 234.45 123.734 233.855 122.054 232.665C120.374 231.475 119.382 229.853 119.079 227.8H122.229C122.579 228.967 123.302 229.9 124.399 230.6C125.495 231.323 126.814 231.685 128.354 231.685C130.104 231.685 131.527 231.137 132.624 230.04C133.744 228.943 134.304 227.403 134.304 225.42V221.395C133.674 222.515 132.74 223.448 131.504 224.195C130.267 224.942 128.82 225.315 127.164 225.315C125.46 225.315 123.909 224.895 122.509 224.055C121.132 223.215 120.047 222.037 119.254 220.52C118.46 219.003 118.064 217.277 118.064 215.34C118.064 213.38 118.46 211.665 119.254 210.195C120.047 208.702 121.132 207.547 122.509 206.73C123.909 205.913 125.46 205.505 127.164 205.505ZM134.304 215.375C134.304 213.928 134.012 212.668 133.429 211.595C132.845 210.522 132.052 209.705 131.049 209.145C130.069 208.562 128.984 208.27 127.794 208.27C126.604 208.27 125.519 208.55 124.539 209.11C123.559 209.67 122.777 210.487 122.194 211.56C121.61 212.633 121.319 213.893 121.319 215.34C121.319 216.81 121.61 218.093 122.194 219.19C122.777 220.263 123.559 221.092 124.539 221.675C125.519 222.235 126.604 222.515 127.794 222.515C128.984 222.515 130.069 222.235 131.049 221.675C132.052 221.092 132.845 220.263 133.429 219.19C134.012 218.093 134.304 216.822 134.304 215.375ZM148.016 208.935C148.576 207.838 149.369 206.987 150.396 206.38C151.446 205.773 152.718 205.47 154.211 205.47V208.76H153.371C149.801 208.76 148.016 210.697 148.016 214.57V225H144.831V205.82H148.016V208.935ZM158.623 215.34C158.623 213.38 159.019 211.665 159.813 210.195C160.606 208.702 161.691 207.547 163.068 206.73C164.468 205.913 166.019 205.505 167.723 205.505C169.403 205.505 170.861 205.867 172.098 206.59C173.334 207.313 174.256 208.223 174.863 209.32V205.82H178.083V225H174.863V221.43C174.233 222.55 173.288 223.483 172.028 224.23C170.791 224.953 169.344 225.315 167.688 225.315C165.984 225.315 164.444 224.895 163.068 224.055C161.691 223.215 160.606 222.037 159.813 220.52C159.019 219.003 158.623 217.277 158.623 215.34ZM174.863 215.375C174.863 213.928 174.571 212.668 173.988 211.595C173.404 210.522 172.611 209.705 171.608 209.145C170.628 208.562 169.543 208.27 168.353 208.27C167.163 208.27 166.078 208.55 165.098 209.11C164.118 209.67 163.336 210.487 162.753 211.56C162.169 212.633 161.878 213.893 161.878 215.34C161.878 216.81 162.169 218.093 162.753 219.19C163.336 220.263 164.118 221.092 165.098 221.675C166.078 222.235 167.163 222.515 168.353 222.515C169.543 222.515 170.628 222.235 171.608 221.675C172.611 221.092 173.404 220.263 173.988 219.19C174.571 218.093 174.863 216.822 174.863 215.375ZM208.455 205.47C209.948 205.47 211.278 205.785 212.445 206.415C213.612 207.022 214.533 207.943 215.21 209.18C215.887 210.417 216.225 211.922 216.225 213.695V225H213.075V214.15C213.075 212.237 212.597 210.778 211.64 209.775C210.707 208.748 209.435 208.235 207.825 208.235C206.168 208.235 204.85 208.772 203.87 209.845C202.89 210.895 202.4 212.423 202.4 214.43V225H199.25V214.15C199.25 212.237 198.772 210.778 197.815 209.775C196.882 208.748 195.61 208.235 194 208.235C192.343 208.235 191.025 208.772 190.045 209.845C189.065 210.895 188.575 212.423 188.575 214.43V225H185.39V205.82H188.575V208.585C189.205 207.582 190.045 206.812 191.095 206.275C192.168 205.738 193.347 205.47 194.63 205.47C196.24 205.47 197.663 205.832 198.9 206.555C200.137 207.278 201.058 208.34 201.665 209.74C202.202 208.387 203.088 207.337 204.325 206.59C205.562 205.843 206.938 205.47 208.455 205.47Z" fill="#3F3D56"/>
</svg>
