<svg width="240" height="236" viewBox="0 0 240 236" fill="none" xmlns="http://www.w3.org/2000/svg">
<path fill-rule="evenodd" clip-rule="evenodd" d="M122.785 0.0360206C138.496 -0.682995 152.271 9.49381 165.538 18.7928C179.692 28.7146 196.881 37.6645 201.714 55.3621C206.527 72.985 196.777 90.8775 189.791 107.595C183.594 122.426 175.989 136.503 163.876 145.912C151.885 155.225 137.348 161.615 122.785 159.641C108.998 157.773 100.744 142.784 88.4371 135.689C72.8671 126.713 50.2706 129.457 41.4181 112.735C32.5536 95.9896 38.4937 73.5911 46.3947 56.2707C53.6576 40.3489 69.0889 32.492 82.5382 22.5914C95.3669 13.1476 107.369 0.741563 122.785 0.0360206Z" fill="#608AF5"/>
<path d="M151 84.1666C150.083 84.1666 149.125 83.875 148.208 83.6667C146.352 83.2576 144.528 82.7145 142.75 82.0416C140.817 81.3384 138.692 81.375 136.785 82.1442C134.877 82.9134 133.321 84.361 132.417 86.2083L131.5 88.0833C127.442 85.8257 123.712 83.0218 120.417 79.75C117.145 76.4542 114.341 72.725 112.083 68.6666L113.833 67.5C115.681 66.5955 117.128 65.0397 117.897 63.132C118.667 61.2244 118.703 59.0996 118 57.1666C117.338 55.3851 116.796 53.5616 116.375 51.7083C116.167 50.7916 116 49.8333 115.875 48.875C115.369 45.9401 113.832 43.2822 111.54 41.3801C109.248 39.478 106.353 38.4567 103.375 38.5H90.875C89.0793 38.4831 87.301 38.8534 85.6613 39.5855C84.0215 40.3177 82.5588 41.3945 81.3726 42.7428C80.1865 44.0911 79.3047 45.6791 78.7874 47.3988C78.2702 49.1185 78.1295 50.9294 78.375 52.7083C80.5947 70.1641 88.5668 86.3828 101.032 98.8026C113.497 111.222 129.745 119.135 147.208 121.292H148.792C151.864 121.296 154.831 120.169 157.125 118.125C158.443 116.946 159.496 115.501 160.214 113.885C160.933 112.269 161.3 110.518 161.292 108.75V96.25C161.241 93.3558 160.187 90.569 158.31 88.3653C156.433 86.1616 153.849 84.6776 151 84.1666ZM153.083 109.167C153.083 109.758 152.956 110.343 152.712 110.882C152.467 111.421 152.111 111.901 151.667 112.292C151.202 112.696 150.658 112.998 150.069 113.177C149.481 113.357 148.861 113.41 148.25 113.333C132.645 111.333 118.151 104.194 107.053 93.0429C95.955 81.892 88.885 67.3639 86.9583 51.75C86.892 51.1396 86.9501 50.5222 87.1292 49.9349C87.3082 49.3477 87.6045 48.8028 88 48.3333C88.3905 47.8889 88.8711 47.5327 89.4099 47.2884C89.9487 47.0441 90.5334 46.9174 91.125 46.9166H103.625C104.594 46.8951 105.54 47.212 106.301 47.8128C107.061 48.4136 107.588 49.2607 107.792 50.2083C107.958 51.3472 108.167 52.4722 108.417 53.5833C108.898 55.7797 109.539 57.9382 110.333 60.0416L104.5 62.75C104.001 62.9788 103.553 63.3039 103.18 63.7066C102.807 64.1093 102.517 64.5817 102.328 65.0966C102.138 65.6115 102.052 66.1589 102.074 66.7072C102.097 67.2555 102.227 67.7939 102.458 68.2916C108.455 81.1365 118.78 91.4617 131.625 97.4583C132.639 97.8751 133.777 97.8751 134.792 97.4583C135.311 97.2725 135.789 96.9852 136.197 96.6133C136.604 96.2413 136.934 95.7921 137.167 95.2917L139.75 89.4583C141.904 90.2286 144.102 90.8687 146.333 91.375C147.444 91.625 148.569 91.8333 149.708 92C150.656 92.2033 151.503 92.7305 152.104 93.4911C152.705 94.2516 153.022 95.1977 153 96.1667L153.083 109.167Z" fill="white"/>
<path d="M98.3699 200.605V203.195H91.7199V225H88.5349V203.195H81.8499V200.605H98.3699ZM121.715 214.675C121.715 215.282 121.68 215.923 121.61 216.6H106.28C106.397 218.49 107.039 219.972 108.205 221.045C109.395 222.095 110.83 222.62 112.51 222.62C113.887 222.62 115.03 222.305 115.94 221.675C116.874 221.022 117.527 220.158 117.9 219.085H121.33C120.817 220.928 119.79 222.433 118.25 223.6C116.71 224.743 114.797 225.315 112.51 225.315C110.69 225.315 109.057 224.907 107.61 224.09C106.187 223.273 105.067 222.118 104.25 220.625C103.434 219.108 103.025 217.358 103.025 215.375C103.025 213.392 103.422 211.653 104.215 210.16C105.009 208.667 106.117 207.523 107.54 206.73C108.987 205.913 110.644 205.505 112.51 205.505C114.33 205.505 115.94 205.902 117.34 206.695C118.74 207.488 119.814 208.585 120.56 209.985C121.33 211.362 121.715 212.925 121.715 214.675ZM118.425 214.01C118.425 212.797 118.157 211.758 117.62 210.895C117.084 210.008 116.349 209.343 115.415 208.9C114.505 208.433 113.49 208.2 112.37 208.2C110.76 208.2 109.384 208.713 108.24 209.74C107.12 210.767 106.479 212.19 106.315 214.01H118.425ZM131.03 199.1V225H127.845V199.1H131.03ZM141.568 209.355C142.198 208.258 143.131 207.348 144.368 206.625C145.628 205.878 147.086 205.505 148.743 205.505C150.446 205.505 151.986 205.913 153.363 206.73C154.763 207.547 155.859 208.702 156.653 210.195C157.446 211.665 157.843 213.38 157.843 215.34C157.843 217.277 157.446 219.003 156.653 220.52C155.859 222.037 154.763 223.215 153.363 224.055C151.986 224.895 150.446 225.315 148.743 225.315C147.109 225.315 145.663 224.953 144.403 224.23C143.166 223.483 142.221 222.562 141.568 221.465V234.1H138.383V205.82H141.568V209.355ZM154.588 215.34C154.588 213.893 154.296 212.633 153.713 211.56C153.129 210.487 152.336 209.67 151.333 209.11C150.353 208.55 149.268 208.27 148.078 208.27C146.911 208.27 145.826 208.562 144.823 209.145C143.843 209.705 143.049 210.533 142.443 211.63C141.859 212.703 141.568 213.952 141.568 215.375C141.568 216.822 141.859 218.093 142.443 219.19C143.049 220.263 143.843 221.092 144.823 221.675C145.826 222.235 146.911 222.515 148.078 222.515C149.268 222.515 150.353 222.235 151.333 221.675C152.336 221.092 153.129 220.263 153.713 219.19C154.296 218.093 154.588 216.81 154.588 215.34Z" fill="#3F3D56"/>
</svg>
